<svg xmlns="http://www.w3.org/2000/svg" xmlns:xlink="http://www.w3.org/1999/xlink" width="500" zoomAndPan="magnify" viewBox="0 0 375 374.999991" height="500" preserveAspectRatio="xMidYMid meet" version="1.0"><defs><g/><clipPath id="771d5fd09d"><path d="M 28.769531 162.882812 L 346.230469 162.882812 L 346.230469 199.585938 L 28.769531 199.585938 Z M 28.769531 162.882812 " clip-rule="nonzero"/></clipPath></defs><rect x="-37.5" width="450" fill="#ffffff" y="-37.499999" height="449.999989" fill-opacity="1"/><rect x="-37.5" width="450" fill="#ffffff" y="-37.499999" height="449.999989" fill-opacity="1"/><g fill="#000000" fill-opacity="1"><g transform="translate(110.231443, 242.624984)"><g><path d="M 150.0625 -132.65625 C 150.488281 -132.65625 150.703125 -132.226562 150.703125 -131.375 C 150.703125 -130.53125 150.488281 -130.109375 150.0625 -130.109375 C 144.257812 -130.109375 139.976562 -128.375 137.21875 -124.90625 C 134.457031 -121.4375 133.078125 -116.023438 133.078125 -108.671875 L 133.078125 2.546875 C 133.078125 2.972656 132.722656 3.253906 132.015625 3.390625 C 131.304688 3.535156 130.8125 3.46875 130.53125 3.1875 L 31.625 -115.25 L 30.984375 -116.09375 L 30.984375 -23.765625 C 30.984375 -16.410156 32.328125 -11.035156 35.015625 -7.640625 C 37.703125 -4.242188 41.878906 -2.546875 47.546875 -2.546875 C 47.972656 -2.546875 48.1875 -2.117188 48.1875 -1.265625 C 48.1875 -0.421875 47.972656 0 47.546875 0 C 44.148438 0 41.460938 -0.0703125 39.484375 -0.21875 L 28.65625 -0.421875 L 17.40625 -0.21875 C 15.28125 -0.0703125 12.238281 0 8.28125 0 C 8 0 7.859375 -0.421875 7.859375 -1.265625 C 7.859375 -2.117188 8 -2.546875 8.28125 -2.546875 C 14.363281 -2.546875 18.785156 -4.242188 21.546875 -7.640625 C 24.304688 -11.035156 25.6875 -16.410156 25.6875 -23.765625 L 25.6875 -121.625 C 19.882812 -127.28125 14.007812 -130.109375 8.0625 -130.109375 C 7.632812 -130.109375 7.421875 -130.53125 7.421875 -131.375 C 7.421875 -132.226562 7.632812 -132.65625 8.0625 -132.65625 L 15.921875 -132.4375 C 17.617188 -132.300781 20.023438 -132.234375 23.140625 -132.234375 L 33.109375 -132.4375 C 34.242188 -132.582031 35.726562 -132.65625 37.5625 -132.65625 C 38.695312 -132.65625 39.507812 -132.40625 40 -131.90625 C 40.5 -131.414062 41.316406 -130.320312 42.453125 -128.625 C 44.148438 -126.070312 45.847656 -123.738281 47.546875 -121.625 L 127.78125 -24.40625 L 127.78125 -108.671875 C 127.78125 -116.023438 126.503906 -121.4375 123.953125 -124.90625 C 121.410156 -128.375 117.238281 -130.109375 111.4375 -130.109375 C 111.144531 -130.109375 111 -130.53125 111 -131.375 C 111 -132.226562 111.144531 -132.65625 111.4375 -132.65625 L 119.703125 -132.4375 C 124.234375 -132.15625 127.84375 -132.015625 130.53125 -132.015625 C 133.21875 -132.015625 136.828125 -132.15625 141.359375 -132.4375 Z M 150.0625 -132.65625 "/></g></g></g><g clip-path="url(#771d5fd09d)"><path fill="#ffffff" d="M 28.769531 162.882812 L 346.1875 162.882812 L 346.1875 199.585938 L 28.769531 199.585938 Z M 28.769531 162.882812 " fill-opacity="1" fill-rule="nonzero"/></g><g fill="#000000" fill-opacity="1"><g transform="translate(125.606898, 182.999988)"><g><path d="M 33 -7.640625 C 33.175781 -7.492188 33.273438 -7.316406 33.296875 -7.109375 C 33.316406 -6.898438 33.265625 -6.707031 33.140625 -6.53125 C 33.085938 -6.46875 32.863281 -6.21875 32.46875 -5.78125 C 32.082031 -5.351562 31.550781 -4.832031 30.875 -4.21875 C 30.207031 -3.613281 29.429688 -3.015625 28.546875 -2.421875 C 27.660156 -1.828125 26.691406 -1.328125 25.640625 -0.921875 C 24.585938 -0.523438 23.488281 -0.328125 22.34375 -0.328125 C 20.84375 -0.328125 19.453125 -0.707031 18.171875 -1.46875 C 17.046875 -2.195312 16.242188 -3.171875 15.765625 -4.390625 C 15.460938 -5.015625 15.222656 -5.414062 15.046875 -5.59375 C 14.878906 -5.769531 14.613281 -5.832031 14.25 -5.78125 C 13.988281 -5.738281 13.59375 -5.5 13.0625 -5.0625 C 12.53125 -4.632812 11.960938 -4.09375 11.359375 -3.4375 C 10.765625 -2.789062 10.265625 -2.113281 9.859375 -1.40625 C 9.640625 -1.050781 9.34375 -0.929688 8.96875 -1.046875 C 8.5625 -1.171875 8.367188 -1.441406 8.390625 -1.859375 C 8.453125 -3.160156 8.269531 -4.195312 7.84375 -4.96875 C 7.425781 -5.75 7.019531 -6.164062 6.625 -6.21875 C 6.394531 -6.257812 6.097656 -6.234375 5.734375 -6.140625 C 5.378906 -6.054688 4.929688 -5.832031 4.390625 -5.46875 C 3.847656 -5.113281 3.195312 -4.5625 2.4375 -3.8125 C 1.675781 -3.070312 0.796875 -2.070312 -0.203125 -0.8125 C -0.472656 -0.488281 -0.796875 -0.421875 -1.171875 -0.609375 C -1.554688 -0.785156 -1.695312 -1.070312 -1.59375 -1.46875 L -0.15625 -7.828125 C -0.113281 -8.046875 0 -8.210938 0.1875 -8.328125 C 0.382812 -8.453125 0.582031 -8.484375 0.78125 -8.421875 C 1 -8.378906 1.164062 -8.265625 1.28125 -8.078125 C 1.40625 -7.890625 1.441406 -7.691406 1.390625 -7.484375 C 1.390625 -7.484375 1.359375 -7.359375 1.296875 -7.109375 C 1.234375 -6.859375 1.164062 -6.566406 1.09375 -6.234375 C 1.03125 -5.910156 0.96875 -5.617188 0.90625 -5.359375 C 0.84375 -5.097656 0.8125 -4.945312 0.8125 -4.90625 C 0.789062 -4.78125 0.820312 -4.707031 0.90625 -4.6875 C 1 -4.664062 1.085938 -4.695312 1.171875 -4.78125 C 2.054688 -5.625 2.820312 -6.265625 3.46875 -6.703125 C 4.125 -7.148438 4.691406 -7.441406 5.171875 -7.578125 C 5.648438 -7.722656 6.066406 -7.785156 6.421875 -7.765625 C 6.773438 -7.742188 7.082031 -7.703125 7.34375 -7.640625 C 7.957031 -7.359375 8.476562 -6.945312 8.90625 -6.40625 C 9.34375 -5.863281 9.613281 -5.253906 9.71875 -4.578125 C 9.738281 -4.472656 9.796875 -4.410156 9.890625 -4.390625 C 10.015625 -4.347656 10.109375 -4.367188 10.171875 -4.453125 C 10.804688 -5.171875 11.476562 -5.8125 12.1875 -6.375 C 12.90625 -6.9375 13.515625 -7.257812 14.015625 -7.34375 C 14.660156 -7.4375 15.175781 -7.375 15.5625 -7.15625 C 15.957031 -6.9375 16.28125 -6.632812 16.53125 -6.25 C 16.78125 -5.875 16.992188 -5.492188 17.171875 -5.109375 C 17.535156 -4.171875 18.128906 -3.421875 18.953125 -2.859375 C 19.992188 -2.253906 21.03125 -1.941406 22.0625 -1.921875 C 23.09375 -1.898438 24.085938 -2.070312 25.046875 -2.4375 C 26.015625 -2.800781 26.910156 -3.253906 27.734375 -3.796875 C 28.554688 -4.347656 29.273438 -4.910156 29.890625 -5.484375 C 30.515625 -6.054688 31.003906 -6.535156 31.359375 -6.921875 C 31.710938 -7.316406 31.894531 -7.515625 31.90625 -7.515625 C 32.03125 -7.703125 32.203125 -7.800781 32.421875 -7.8125 C 32.640625 -7.832031 32.832031 -7.773438 33 -7.640625 Z M 33 -7.640625 "/></g></g></g><g fill="#000000" fill-opacity="1"><g transform="translate(157.270867, 182.999988)"><g><path d="M 25.140625 -7.3125 C 25.285156 -7.144531 25.359375 -6.953125 25.359375 -6.734375 C 25.335938 -6.515625 25.242188 -6.335938 25.078125 -6.203125 C 25.023438 -6.140625 24.734375 -5.882812 24.203125 -5.4375 C 23.671875 -5 22.96875 -4.476562 22.09375 -3.875 C 21.21875 -3.28125 20.234375 -2.695312 19.140625 -2.125 C 18.046875 -1.550781 16.890625 -1.09375 15.671875 -0.75 C 14.460938 -0.40625 13.253906 -0.273438 12.046875 -0.359375 C 10.835938 -0.441406 9.679688 -0.84375 8.578125 -1.5625 C 7.734375 -2.101562 7.0625 -2.804688 6.5625 -3.671875 C 6.414062 -3.910156 6.191406 -4.039062 5.890625 -4.0625 C 5.609375 -4.082031 5.390625 -3.972656 5.234375 -3.734375 C 4.796875 -3.066406 4.316406 -2.4375 3.796875 -1.84375 C 3.273438 -1.257812 2.742188 -0.785156 2.203125 -0.421875 C 1.660156 -0.0546875 1.132812 0.132812 0.625 0.15625 L 0.609375 0.15625 C 0.242188 0.132812 -0.09375 0.0195312 -0.40625 -0.1875 C -0.71875 -0.40625 -0.941406 -0.679688 -1.078125 -1.015625 C -1.679688 -2.523438 -1.59375 -3.992188 -0.8125 -5.421875 C -0.144531 -6.796875 0.78125 -7.96875 1.96875 -8.9375 C 3.164062 -9.914062 4.515625 -10.585938 6.015625 -10.953125 C 6.316406 -11.023438 6.566406 -10.953125 6.765625 -10.734375 C 6.984375 -10.515625 7.054688 -10.253906 6.984375 -9.953125 C 6.878906 -9.671875 6.675781 -9.492188 6.375 -9.421875 C 5.113281 -9.117188 3.976562 -8.5625 2.96875 -7.75 C 1.96875 -6.9375 1.1875 -5.9375 0.625 -4.75 C 0.0703125 -3.789062 -0.0234375 -2.789062 0.328125 -1.75 C 0.453125 -1.539062 0.546875 -1.4375 0.609375 -1.4375 C 0.785156 -1.320312 1.050781 -1.445312 1.40625 -1.8125 C 1.769531 -2.1875 2.179688 -2.710938 2.640625 -3.390625 C 3.109375 -4.078125 3.566406 -4.832031 4.015625 -5.65625 C 4.460938 -6.476562 4.867188 -7.28125 5.234375 -8.0625 C 5.390625 -8.425781 5.671875 -8.578125 6.078125 -8.515625 C 6.453125 -8.453125 6.671875 -8.226562 6.734375 -7.84375 C 6.734375 -7.832031 6.773438 -7.640625 6.859375 -7.265625 C 6.941406 -6.890625 7.082031 -6.429688 7.28125 -5.890625 C 7.476562 -5.347656 7.75 -4.800781 8.09375 -4.25 C 8.445312 -3.695312 8.894531 -3.242188 9.4375 -2.890625 C 10.363281 -2.265625 11.363281 -1.9375 12.4375 -1.90625 C 13.507812 -1.875 14.585938 -2.035156 15.671875 -2.390625 C 16.753906 -2.742188 17.789062 -3.1875 18.78125 -3.71875 C 19.769531 -4.25 20.65625 -4.796875 21.4375 -5.359375 C 22.226562 -5.921875 22.851562 -6.390625 23.3125 -6.765625 C 23.769531 -7.148438 24.007812 -7.351562 24.03125 -7.375 C 24.1875 -7.507812 24.375 -7.570312 24.59375 -7.5625 C 24.820312 -7.550781 25.003906 -7.46875 25.140625 -7.3125 Z M 25.140625 -7.3125 "/></g></g></g><g fill="#000000" fill-opacity="1"><g transform="translate(181.567622, 182.999988)"><g><path d="M 26.28125 -7.484375 C 26.445312 -7.347656 26.535156 -7.171875 26.546875 -6.953125 C 26.554688 -6.734375 26.476562 -6.539062 26.3125 -6.375 C 26.28125 -6.3125 26.0625 -6.082031 25.65625 -5.6875 C 25.257812 -5.300781 24.71875 -4.832031 24.03125 -4.28125 C 23.351562 -3.726562 22.5625 -3.175781 21.65625 -2.625 C 20.75 -2.082031 19.773438 -1.617188 18.734375 -1.234375 C 17.691406 -0.847656 16.613281 -0.625 15.5 -0.5625 C 14.394531 -0.507812 13.28125 -0.710938 12.15625 -1.171875 C 10.59375 -1.953125 9.378906 -3.101562 8.515625 -4.625 C 8.390625 -4.789062 8.21875 -5.039062 8 -5.375 C 7.78125 -5.71875 7.476562 -5.878906 7.09375 -5.859375 C 6.914062 -5.859375 6.648438 -5.800781 6.296875 -5.6875 C 5.953125 -5.582031 5.503906 -5.363281 4.953125 -5.03125 C 4.398438 -4.707031 3.738281 -4.191406 2.96875 -3.484375 C 2.207031 -2.785156 1.316406 -1.84375 0.296875 -0.65625 C 0.0351562 -0.351562 -0.28125 -0.296875 -0.65625 -0.484375 C -1.019531 -0.660156 -1.148438 -0.953125 -1.046875 -1.359375 L 0.453125 -7.96875 C 0.492188 -8.164062 0.609375 -8.320312 0.796875 -8.4375 C 0.984375 -8.5625 1.179688 -8.597656 1.390625 -8.546875 C 1.609375 -8.503906 1.769531 -8.382812 1.875 -8.1875 C 1.988281 -8 2.023438 -7.804688 1.984375 -7.609375 L 1.296875 -4.625 C 1.273438 -4.53125 1.3125 -4.453125 1.40625 -4.390625 C 1.507812 -4.347656 1.601562 -4.367188 1.6875 -4.453125 C 3.90625 -6.554688 5.78125 -7.554688 7.3125 -7.453125 C 7.945312 -7.421875 8.488281 -7.160156 8.9375 -6.671875 C 9.269531 -6.316406 9.566406 -5.925781 9.828125 -5.5 C 10.515625 -4.257812 11.476562 -3.304688 12.71875 -2.640625 C 13.6875 -2.242188 14.660156 -2.082031 15.640625 -2.15625 C 16.617188 -2.238281 17.566406 -2.460938 18.484375 -2.828125 C 19.410156 -3.191406 20.273438 -3.628906 21.078125 -4.140625 C 21.878906 -4.648438 22.585938 -5.15625 23.203125 -5.65625 C 23.816406 -6.15625 24.289062 -6.570312 24.625 -6.90625 C 24.96875 -7.25 25.148438 -7.429688 25.171875 -7.453125 C 25.316406 -7.617188 25.5 -7.703125 25.71875 -7.703125 C 25.9375 -7.703125 26.125 -7.628906 26.28125 -7.484375 Z M 26.28125 -7.484375 "/></g></g></g><g fill="#000000" fill-opacity="1"><g transform="translate(206.61614, 182.999988)"><g><path d="M 19.484375 -8.125 C 19.648438 -7.976562 19.734375 -7.796875 19.734375 -7.578125 C 19.734375 -7.359375 19.660156 -7.171875 19.515625 -7.015625 C 19.441406 -6.953125 19.140625 -6.671875 18.609375 -6.171875 C 18.078125 -5.671875 17.375 -5.070312 16.5 -4.375 C 15.625 -3.6875 14.625 -3 13.5 -2.3125 C 12.382812 -1.632812 11.1875 -1.066406 9.90625 -0.609375 C 8.632812 -0.160156 7.359375 0.0625 6.078125 0.0625 C 4.234375 0.0820312 2.578125 -0.457031 1.109375 -1.5625 C 0.503906 -2 0.09375 -2.519531 -0.125 -3.125 C -0.34375 -3.726562 -0.4375 -4.347656 -0.40625 -4.984375 C -0.375 -5.628906 -0.273438 -6.234375 -0.109375 -6.796875 C 0.046875 -7.359375 0.195312 -7.816406 0.34375 -8.171875 C 0.5 -8.535156 0.585938 -8.738281 0.609375 -8.78125 C 0.722656 -8.957031 0.878906 -9.078125 1.078125 -9.140625 C 1.285156 -9.203125 1.476562 -9.179688 1.65625 -9.078125 C 1.851562 -8.984375 1.988281 -8.832031 2.0625 -8.625 C 2.132812 -8.425781 2.117188 -8.238281 2.015625 -8.0625 C 2.015625 -8.039062 1.953125 -7.898438 1.828125 -7.640625 C 1.710938 -7.378906 1.585938 -7.035156 1.453125 -6.609375 C 1.328125 -6.191406 1.238281 -5.75 1.1875 -5.28125 C 1.132812 -4.8125 1.164062 -4.351562 1.28125 -3.90625 C 1.40625 -3.46875 1.660156 -3.109375 2.046875 -2.828125 C 2.960938 -2.148438 3.9375 -1.738281 4.96875 -1.59375 C 6.007812 -1.457031 7.050781 -1.515625 8.09375 -1.765625 C 9.132812 -2.015625 10.15625 -2.382812 11.15625 -2.875 C 12.15625 -3.363281 13.085938 -3.90625 13.953125 -4.5 C 14.816406 -5.09375 15.578125 -5.660156 16.234375 -6.203125 C 16.898438 -6.742188 17.414062 -7.191406 17.78125 -7.546875 C 18.15625 -7.910156 18.351562 -8.101562 18.375 -8.125 C 18.539062 -8.28125 18.726562 -8.359375 18.9375 -8.359375 C 19.144531 -8.359375 19.328125 -8.28125 19.484375 -8.125 Z M 0.265625 -10.5 C -0.128906 -10.5 -0.378906 -10.695312 -0.484375 -11.09375 C -0.578125 -11.5 -0.445312 -11.800781 -0.09375 -12 C 0.46875 -12.28125 0.96875 -12.648438 1.40625 -13.109375 C 1.570312 -13.273438 1.757812 -13.359375 1.96875 -13.359375 C 2.175781 -13.359375 2.363281 -13.285156 2.53125 -13.140625 C 2.6875 -12.984375 2.769531 -12.796875 2.78125 -12.578125 C 2.789062 -12.367188 2.71875 -12.1875 2.5625 -12.03125 C 2 -11.445312 1.363281 -10.976562 0.65625 -10.625 C 0.539062 -10.539062 0.410156 -10.5 0.265625 -10.5 Z M 0.265625 -10.5 "/></g></g></g><g fill="#000000" fill-opacity="1"><g transform="translate(225.07927, 182.999988)"><g><path d="M 25.140625 -7.3125 C 25.285156 -7.144531 25.359375 -6.953125 25.359375 -6.734375 C 25.335938 -6.515625 25.242188 -6.335938 25.078125 -6.203125 C 25.023438 -6.140625 24.734375 -5.882812 24.203125 -5.4375 C 23.671875 -5 22.96875 -4.476562 22.09375 -3.875 C 21.21875 -3.28125 20.234375 -2.695312 19.140625 -2.125 C 18.046875 -1.550781 16.890625 -1.09375 15.671875 -0.75 C 14.460938 -0.40625 13.253906 -0.273438 12.046875 -0.359375 C 10.835938 -0.441406 9.679688 -0.84375 8.578125 -1.5625 C 7.734375 -2.101562 7.0625 -2.804688 6.5625 -3.671875 C 6.414062 -3.910156 6.191406 -4.039062 5.890625 -4.0625 C 5.609375 -4.082031 5.390625 -3.972656 5.234375 -3.734375 C 4.796875 -3.066406 4.316406 -2.4375 3.796875 -1.84375 C 3.273438 -1.257812 2.742188 -0.785156 2.203125 -0.421875 C 1.660156 -0.0546875 1.132812 0.132812 0.625 0.15625 L 0.609375 0.15625 C 0.242188 0.132812 -0.09375 0.0195312 -0.40625 -0.1875 C -0.71875 -0.40625 -0.941406 -0.679688 -1.078125 -1.015625 C -1.679688 -2.523438 -1.59375 -3.992188 -0.8125 -5.421875 C -0.144531 -6.796875 0.78125 -7.96875 1.96875 -8.9375 C 3.164062 -9.914062 4.515625 -10.585938 6.015625 -10.953125 C 6.316406 -11.023438 6.566406 -10.953125 6.765625 -10.734375 C 6.984375 -10.515625 7.054688 -10.253906 6.984375 -9.953125 C 6.878906 -9.671875 6.675781 -9.492188 6.375 -9.421875 C 5.113281 -9.117188 3.976562 -8.5625 2.96875 -7.75 C 1.96875 -6.9375 1.1875 -5.9375 0.625 -4.75 C 0.0703125 -3.789062 -0.0234375 -2.789062 0.328125 -1.75 C 0.453125 -1.539062 0.546875 -1.4375 0.609375 -1.4375 C 0.785156 -1.320312 1.050781 -1.445312 1.40625 -1.8125 C 1.769531 -2.1875 2.179688 -2.710938 2.640625 -3.390625 C 3.109375 -4.078125 3.566406 -4.832031 4.015625 -5.65625 C 4.460938 -6.476562 4.867188 -7.28125 5.234375 -8.0625 C 5.390625 -8.425781 5.671875 -8.578125 6.078125 -8.515625 C 6.453125 -8.453125 6.671875 -8.226562 6.734375 -7.84375 C 6.734375 -7.832031 6.773438 -7.640625 6.859375 -7.265625 C 6.941406 -6.890625 7.082031 -6.429688 7.28125 -5.890625 C 7.476562 -5.347656 7.75 -4.800781 8.09375 -4.25 C 8.445312 -3.695312 8.894531 -3.242188 9.4375 -2.890625 C 10.363281 -2.265625 11.363281 -1.9375 12.4375 -1.90625 C 13.507812 -1.875 14.585938 -2.035156 15.671875 -2.390625 C 16.753906 -2.742188 17.789062 -3.1875 18.78125 -3.71875 C 19.769531 -4.25 20.65625 -4.796875 21.4375 -5.359375 C 22.226562 -5.921875 22.851562 -6.390625 23.3125 -6.765625 C 23.769531 -7.148438 24.007812 -7.351562 24.03125 -7.375 C 24.1875 -7.507812 24.375 -7.570312 24.59375 -7.5625 C 24.820312 -7.550781 25.003906 -7.46875 25.140625 -7.3125 Z M 25.140625 -7.3125 "/></g></g></g></svg>